<svg height="682.66669pt" viewBox="-21 -21 682.66669 682.66669" width="682.66669pt" xmlns="http://www.w3.org/2000/svg"><path d="m597.335938 192c23.5625 0 42.664062-19.105469 42.664062-42.667969v-106.667969c0-23.5625-19.101562-42.664062-42.664062-42.664062h-106.667969c-23.5625 0-42.667969 19.101562-42.667969 42.664062v21.335938h-32v-21.335938c0-23.5625-19.101562-42.664062-42.664062-42.664062h-106.671876c-23.5625 0-42.664062 19.101562-42.664062 42.664062v21.335938h-32v-21.335938c0-23.5625-19.105469-42.664062-42.667969-42.664062h-106.667969c-23.5625 0-42.664062 19.101562-42.664062 42.664062v106.667969c0 23.5625 19.101562 42.667969 42.664062 42.667969h21.335938v32h-21.335938c-23.5625 0-42.664062 19.101562-42.664062 42.664062v106.671876c0 23.5625 19.101562 42.664062 42.664062 42.664062h21.335938v32h-21.335938c-23.5625 0-42.664062 19.105469-42.664062 42.667969v106.667969c0 23.5625 19.101562 42.664062 42.664062 42.664062h106.667969c23.5625 0 42.667969-19.101562 42.667969-42.664062v-21.335938h32v21.335938c0 23.5625 19.101562 42.664062 42.664062 42.664062h106.671876c23.5625 0 42.664062-19.101562 42.664062-42.664062v-21.335938h32v21.335938c0 23.5625 19.105469 42.664062 42.667969 42.664062h106.667969c23.5625 0 42.664062-19.101562 42.664062-42.664062v-106.667969c0-23.5625-19.101562-42.667969-42.664062-42.667969h-21.335938v-32h21.335938c23.5625 0 42.664062-19.101562 42.664062-42.664062v-106.671876c0-23.5625-19.101562-42.664062-42.664062-42.664062h-21.335938v-32zm-128.003907-149.335938c0-11.78125 9.554688-21.332031 21.335938-21.332031h106.667969c11.78125 0 21.332031 9.550781 21.332031 21.332031v106.667969c0 11.78125-9.550781 21.335938-21.332031 21.335938h-106.667969c-11.78125 0-21.335938-9.554688-21.335938-21.335938zm21.335938 181.335938c-23.5625 0-42.667969 19.101562-42.667969 42.664062v106.671876c0 23.5625 19.105469 42.664062 42.667969 42.664062h21.332031v32h-21.332031c-23.5625 0-42.667969 19.105469-42.667969 42.667969v21.332031h-32v-21.332031c0-23.5625-19.101562-42.667969-42.664062-42.667969h-106.671876c-23.5625 0-42.664062 19.105469-42.664062 42.667969v21.332031h-32v-21.332031c0-23.5625-19.105469-42.667969-42.667969-42.667969h-21.332031v-32h21.332031c23.5625 0 42.667969-19.101562 42.667969-42.664062v-106.671876c0-23.5625-19.105469-42.664062-42.667969-42.664062h-21.332031v-32h21.332031c23.5625 0 42.667969-19.105469 42.667969-42.667969v-21.332031h32v21.332031c0 23.5625 19.101562 42.667969 42.664062 42.667969h106.671876c23.5625 0 42.664062-19.105469 42.664062-42.667969v-21.332031h32v21.332031c0 23.5625 19.105469 42.667969 42.667969 42.667969h21.332031v32zm-42.667969-138.667969v21.332031h-32v-21.332031zm-202.667969-42.667969c0-11.78125 9.550781-21.332031 21.332031-21.332031h106.671876c11.78125 0 21.332031 9.550781 21.332031 21.332031v106.667969c0 11.78125-9.550781 21.335938-21.332031 21.335938h-106.671876c-11.78125 0-21.332031-9.554688-21.332031-21.335938zm-21.332031 42.667969v21.332031h-32v-21.332031zm-202.667969 64v-106.667969c0-11.78125 9.550781-21.332031 21.332031-21.332031h106.667969c11.78125 0 21.335938 9.550781 21.335938 21.332031v106.667969c0 11.78125-9.554688 21.335938-21.335938 21.335938h-106.667969c-11.78125 0-21.332031-9.554688-21.332031-21.335938zm64 42.667969h21.332031v32h-21.332031zm-64 181.335938v-106.671876c0-11.78125 9.550781-21.332031 21.332031-21.332031h106.667969c11.78125 0 21.335938 9.550781 21.335938 21.332031v106.671876c0 11.78125-9.554688 21.332031-21.335938 21.332031h-106.667969c-11.78125 0-21.332031-9.550781-21.332031-21.332031zm64 42.664062h21.332031v32h-21.332031zm85.335938 181.335938c0 11.78125-9.554688 21.332031-21.335938 21.332031h-106.667969c-11.78125 0-21.332031-9.550781-21.332031-21.332031v-106.667969c0-11.78125 9.550781-21.335938 21.332031-21.335938h106.667969c11.78125 0 21.335938 9.554688 21.335938 21.335938zm21.332031-42.667969v-21.332031h32v21.332031zm202.667969 42.667969c0 11.78125-9.550781 21.332031-21.332031 21.332031h-106.671876c-11.78125 0-21.332031-9.550781-21.332031-21.332031v-106.667969c0-11.78125 9.550781-21.335938 21.332031-21.335938h106.671876c11.78125 0 21.332031 9.554688 21.332031 21.335938zm21.332031-42.667969v-21.332031h32v21.332031zm202.667969-64v106.667969c0 11.78125-9.550781 21.332031-21.332031 21.332031h-106.667969c-11.78125 0-21.335938-9.550781-21.335938-21.332031v-106.667969c0-11.78125 9.554688-21.335938 21.335938-21.335938h106.667969c11.78125 0 21.332031 9.554688 21.332031 21.335938zm-64-42.667969h-21.332031v-32h21.332031zm64-181.335938v106.671876c0 11.78125-9.550781 21.332031-21.332031 21.332031h-106.667969c-11.78125 0-21.335938-9.550781-21.335938-21.332031v-106.671876c0-11.78125 9.554688-21.332031 21.335938-21.332031h106.667969c11.78125 0 21.332031 9.550781 21.332031 21.332031zm-64-42.664062h-21.332031v-32h21.332031zm0 0"/><path d="m373.335938 224h-106.671876c-23.5625 0-42.664062 19.101562-42.664062 42.664062v106.671876c0 23.5625 19.101562 42.664062 42.664062 42.664062h106.671876c23.5625 0 42.664062-19.101562 42.664062-42.664062v-106.671876c0-23.5625-19.101562-42.664062-42.664062-42.664062zm21.332031 149.335938c0 11.78125-9.550781 21.332031-21.332031 21.332031h-106.671876c-11.78125 0-21.332031-9.550781-21.332031-21.332031v-106.671876c0-11.78125 9.550781-21.332031 21.332031-21.332031h106.671876c11.78125 0 21.332031 9.550781 21.332031 21.332031zm0 0"/><path d="m96 53.335938c0-5.894532-4.773438-10.671876-10.667969-10.671876h-31.996093c-5.894532 0-10.671876 4.777344-10.671876 10.671876v31.996093c0 5.894531 4.777344 10.667969 10.671876 10.667969 5.886718 0 10.664062-4.773438 10.664062-10.667969v-21.332031h21.332031c5.894531 0 10.667969-4.777344 10.667969-10.664062zm0 0"/><path d="m544 586.664062c0 5.894532 4.773438 10.671876 10.667969 10.671876h31.996093c5.894532 0 10.671876-4.777344 10.671876-10.671876v-31.996093c0-5.894531-4.777344-10.667969-10.671876-10.667969-5.886718 0-10.664062 4.773438-10.664062 10.667969v21.332031h-21.332031c-5.894531 0-10.667969 4.777344-10.667969 10.664062zm0 0"/></svg>